NotoSerifTamilSlanted-Bold.ufo
<glyph name="quotedbl" format="2">
  <advance width="508"/>
  <unicode hex="0022"/>
  <outline>
    <contour>
      <point x="152" y="439" type="line"/>
      <point x="218" y="439" type="line"/>
      <point x="332" y="714" type="line"/>
      <point x="176" y="714" type="line"/>
    </contour>
    <contour>
      <point x="370" y="439" type="line"/>
      <point x="436" y="439" type="line"/>
      <point x="550" y="714" type="line"/>
      <point x="394" y="714" type="line"/>
    </contour>
  </outline>
</glyph>
<glyph name="asterisk" format="2">
  <advance width="618"/>
  <unicode hex="002A"/>
  <outline>
    <contour>
      <point x="381" y="358" type="line"/>
      <point x="380" y="524" type="line"/>
      <point x="505" y="391" type="line"/>
      <point x="570" y="478" type="line"/>
      <point x="426" y="550" type="line"/>
      <point x="586" y="556" type="line"/>
      <point x="563" y="663" type="line"/>
      <point x="395" y="592" type="line"/>
      <point x="464" y="742" type="line"/>
      <point x="354" y="765" type="line"/>
      <point x="352" y="599" type="line"/>
      <point x="229" y="736" type="line"/>
      <point x="164" y="646" type="line"/>
      <point x="308" y="575" type="line"/>
      <point x="147" y="567" type="line"/>
      <point x="171" y="461" type="line"/>
      <point x="338" y="534" type="line"/>
      <point x="272" y="381" type="line"/>
    </contour>
  </outline>
</glyph>
<glyph name="period" format="2">
  <advance width="304"/>
  <unicode hex="002E"/>
  <outline>
    <contour>
      <point x="115" y="-8" type="curve" smooth="yes"/>
      <point x="157" y="-8"/>
      <point x="202" y="15"/>
      <point x="202" y="82" type="curve" smooth="yes"/>
      <point x="202" y="131"/>
      <point x="167" y="154"/>
      <point x="121" y="154" type="curve" smooth="yes"/>
      <point x="68" y="154"/>
      <point x="34" y="118"/>
      <point x="34" y="64" type="curve" smooth="yes"/>
      <point x="34" y="15"/>
      <point x="67" y="-8"/>
    </contour>
  </outline>
</glyph>
<glyph name="two" format="2">
  <advance width="559"/>
  <unicode hex="0032"/>
  <outline>
    <contour>
      <point x="-14" y="0" type="line"/>
      <point x="459" y="0" type="line"/>
      <point x="508" y="210" type="line"/>
      <point x="449" y="210" type="line"/>
      <point x="442" y="192" type="line" smooth="yes"/>
      <point x="426" y="151"/>
      <point x="402" y="110"/>
      <point x="338" y="110" type="curve" smooth="yes"/>
      <point x="105" y="110" type="line"/>
      <point x="345" y="303" type="line" smooth="yes"/>
      <point x="488" y="418"/>
      <point x="561" y="496"/>
      <point x="561" y="585" type="curve" smooth="yes"/>
      <point x="561" y="671"/>
      <point x="486" y="724"/>
      <point x="349" y="724" type="curve" smooth="yes"/>
      <point x="198" y="724"/>
      <point x="115" y="658"/>
      <point x="115" y="579" type="curve" smooth="yes"/>
      <point x="115" y="520"/>
      <point x="164" y="493"/>
      <point x="230" y="493" type="curve"/>
      <point x="236" y="588"/>
      <point x="273" y="662"/>
      <point x="339" y="662" type="curve" smooth="yes"/>
      <point x="384" y="662"/>
      <point x="409" y="623"/>
      <point x="409" y="568" type="curve" smooth="yes"/>
      <point x="409" y="484"/>
      <point x="376" y="415"/>
      <point x="240" y="300" type="curve" smooth="yes"/>
      <point x="7" y="103" type="line"/>
    </contour>
  </outline>
</glyph>
<glyph name="eight" format="2">
  <advance width="559"/>
  <unicode hex="0038"/>
  <outline>
    <contour>
      <point x="247" y="-10" type="curve" smooth="yes"/>
      <point x="407" y="-10"/>
      <point x="520" y="56"/>
      <point x="520" y="202" type="curve" smooth="yes"/>
      <point x="520" y="283"/>
      <point x="468" y="339"/>
      <point x="399" y="383" type="curve"/>
      <point x="498" y="427"/>
      <point x="567" y="477"/>
      <point x="567" y="578" type="curve" smooth="yes"/>
      <point x="567" y="662"/>
      <point x="493" y="724"/>
      <point x="367" y="724" type="curve" smooth="yes"/>
      <point x="185" y="724"/>
      <point x="114" y="639"/>
      <point x="114" y="539" type="curve" smooth="yes"/>
      <point x="114" y="468"/>
      <point x="153" y="405"/>
      <point x="210" y="362" type="curve"/>
      <point x="98" y="319"/>
      <point x="13" y="274"/>
      <point x="13" y="162" type="curve" smooth="yes"/>
      <point x="13" y="62"/>
      <point x="107" y="-10"/>
    </contour>
    <contour>
      <point x="255" y="48" type="curve" smooth="yes"/>
      <point x="188" y="48"/>
      <point x="148" y="90"/>
      <point x="148" y="158" type="curve" smooth="yes"/>
      <point x="148" y="240"/>
      <point x="194" y="293"/>
      <point x="270" y="324" type="curve"/>
      <point x="345" y="282"/>
      <point x="384" y="239"/>
      <point x="384" y="174" type="curve" smooth="yes"/>
      <point x="384" y="90"/>
      <point x="325" y="48"/>
    </contour>
    <contour>
      <point x="337" y="414" type="curve"/>
      <point x="281" y="448"/>
      <point x="252" y="492"/>
      <point x="252" y="544" type="curve" smooth="yes"/>
      <point x="252" y="619"/>
      <point x="300" y="666"/>
      <point x="362" y="666" type="curve" smooth="yes"/>
      <point x="416" y="666"/>
      <point x="441" y="625"/>
      <point x="441" y="571" type="curve" smooth="yes"/>
      <point x="441" y="507"/>
      <point x="414" y="454"/>
    </contour>
  </outline>
</glyph>
<glyph name="nine" format="2">
  <advance width="559"/>
  <unicode hex="0039"/>
  <outline>
    <contour>
      <point x="180" y="-10" type="curve" smooth="yes"/>
      <point x="454" y="-10"/>
      <point x="556" y="333"/>
      <point x="556" y="527" type="curve" smooth="yes"/>
      <point x="556" y="653"/>
      <point x="480" y="724"/>
      <point x="360" y="724" type="curve" smooth="yes"/>
      <point x="208" y="724"/>
      <point x="78" y="608"/>
      <point x="78" y="441" type="curve" smooth="yes"/>
      <point x="78" y="344"/>
      <point x="138" y="275"/>
      <point x="245" y="275" type="curve" smooth="yes"/>
      <point x="314" y="275"/>
      <point x="362" y="308"/>
      <point x="396" y="343" type="curve"/>
      <point x="345" y="156"/>
      <point x="289" y="53"/>
      <point x="191" y="53" type="curve" smooth="yes"/>
      <point x="131" y="53"/>
      <point x="107" y="111"/>
      <point x="106" y="162" type="curve"/>
      <point x="57" y="162"/>
      <point x="28" y="137"/>
      <point x="28" y="93" type="curve" smooth="yes"/>
      <point x="28" y="37"/>
      <point x="73" y="-10"/>
    </contour>
    <contour>
      <point x="296" y="347" type="curve" smooth="yes"/>
      <point x="251" y="347"/>
      <point x="222" y="381"/>
      <point x="222" y="446" type="curve" smooth="yes"/>
      <point x="222" y="549"/>
      <point x="276" y="657"/>
      <point x="351" y="657" type="curve" smooth="yes"/>
      <point x="394" y="657"/>
      <point x="425" y="621"/>
      <point x="425" y="533" type="curve" smooth="yes"/>
      <point x="425" y="506"/>
      <point x="418" y="457"/>
      <point x="410" y="425" type="curve"/>
      <point x="386" y="387"/>
      <point x="348" y="347"/>
    </contour>
  </outline>
</glyph>
<glyph name="bracketleft" format="2">
  <advance width="414"/>
  <unicode hex="005B"/>
  <outline>
    <contour>
      <point x="21" y="-128" type="line"/>
      <point x="298" y="-128" type="line"/>
      <point x="309" y="-75" type="line"/>
      <point x="266" y="-75" type="line" smooth="yes"/>
      <point x="228" y="-75"/>
      <point x="197" y="-69"/>
      <point x="197" y="-28" type="curve" smooth="yes"/>
      <point x="197" y="-21"/>
      <point x="198" y="-13"/>
      <point x="200" y="-3" type="curve" smooth="yes"/>
      <point x="335" y="635" type="line" smooth="yes"/>
      <point x="348" y="698"/>
      <point x="389" y="707"/>
      <point x="433" y="707" type="curve" smooth="yes"/>
      <point x="476" y="707" type="line"/>
      <point x="487" y="760" type="line"/>
      <point x="210" y="760" type="line"/>
    </contour>
  </outline>
</glyph>
<glyph name="asciitilde" format="2">
  <advance width="559"/>
  <unicode hex="007E"/>
  <outline>
    <contour>
      <point x="46" y="262" type="curve"/>
      <point x="119" y="262" type="line"/>
      <point x="120" y="343"/>
      <point x="140" y="378"/>
      <point x="180" y="378" type="curve" smooth="yes"/>
      <point x="200" y="378"/>
      <point x="210" y="369"/>
      <point x="256" y="327" type="curve" smooth="yes"/>
      <point x="308" y="279"/>
      <point x="340" y="262"/>
      <point x="383" y="262" type="curve" smooth="yes"/>
      <point x="477" y="262"/>
      <point x="508" y="345"/>
      <point x="512" y="451" type="curve"/>
      <point x="438" y="451" type="line"/>
      <point x="435" y="373"/>
      <point x="416" y="335"/>
      <point x="381" y="335" type="curve" smooth="yes"/>
      <point x="361" y="335"/>
      <point x="347" y="349"/>
      <point x="306" y="384" type="curve" smooth="yes"/>
      <point x="251" y="431"/>
      <point x="226" y="451"/>
      <point x="178" y="451" type="curve" smooth="yes"/>
      <point x="76" y="451"/>
      <point x="46" y="359"/>
    </contour>
  </outline>
</glyph>
<glyph name="danda-deva" format="2">
  <advance width="344"/>
  <unicode hex="0964"/>
  <outline>
    <contour>
      <point x="31" y="0" type="line"/>
      <point x="193" y="0" type="line"/>
      <point x="313" y="563" type="line"/>
      <point x="151" y="563" type="line"/>
    </contour>
  </outline>
</glyph>
<glyph name="dbldanda-deva" format="2">
  <advance width="630"/>
  <unicode hex="0965"/>
  <outline>
    <contour>
      <point x="318" y="0" type="line"/>
      <point x="479" y="0" type="line"/>
      <point x="599" y="563" type="line"/>
      <point x="437" y="563" type="line"/>
    </contour>
    <contour>
      <point x="31" y="0" type="line"/>
      <point x="193" y="0" type="line"/>
      <point x="313" y="563" type="line"/>
      <point x="151" y="563" type="line"/>
    </contour>
  </outline>
</glyph>
<glyph name="a-tamil" format="2">
  <advance width="1348"/>
  <unicode hex="0B85"/>
  <note>
uni0B85
</note>
  <anchor x="578" y="0" name="bottom"/>
  <anchor x="369" y="-151" name="nukta"/>
  <anchor x="695" y="563" name="top"/>
  <anchor x="695" y="563" name="vedic"/>
  <outline>
    <contour>
      <point x="995" y="-228" type="line"/>
      <point x="1152" y="-228" type="line"/>
      <point x="1320" y="563" type="line"/>
      <point x="1163" y="563" type="line"/>
      <point x="1079" y="165" type="line"/>
      <point x="94" y="165" type="line" smooth="yes"/>
      <point x="21" y="165"/>
      <point x="-17" y="119"/>
      <point x="-17" y="58" type="curve" smooth="yes"/>
      <point x="-17" y="-44"/>
      <point x="123" y="-151"/>
      <point x="382" y="-151" type="curve" smooth="yes"/>
      <point x="710" y="-151"/>
      <point x="971" y="-15"/>
      <point x="971" y="273" type="curve" smooth="yes"/>
      <point x="971" y="469"/>
      <point x="821" y="568"/>
      <point x="644" y="568" type="curve" smooth="yes"/>
      <point x="486" y="568"/>
      <point x="369" y="482"/>
      <point x="369" y="358" type="curve" smooth="yes"/>
      <point x="369" y="283"/>
      <point x="425" y="219"/>
      <point x="526" y="219" type="curve" smooth="yes"/>
      <point x="633" y="219"/>
      <point x="705" y="280"/>
      <point x="705" y="371" type="curve" smooth="yes"/>
      <point x="705" y="445"/>
      <point x="657" y="496"/>
      <point x="578" y="517" type="curve"/>
      <point x="518" y="512" type="line"/>
      <point x="557" y="494"/>
      <point x="594" y="451"/>
      <point x="594" y="396" type="curve" smooth="yes"/>
      <point x="594" y="341"/>
      <point x="563" y="305"/>
      <point x="508" y="305" type="curve" smooth="yes"/>
      <point x="476" y="305"/>
      <point x="444" y="323"/>
      <point x="444" y="365" type="curve" smooth="yes"/>
      <point x="444" y="448"/>
      <point x="520" y="506"/>
      <point x="628" y="506" type="curve" smooth="yes"/>
      <point x="731" y="506"/>
      <point x="820" y="436"/>
      <point x="820" y="305" type="curve" smooth="yes"/>
      <point x="820" y="52"/>
      <point x="633" y="-89"/>
      <point x="376" y="-89" type="curve" smooth="yes"/>
      <point x="173" y="-89"/>
      <point x="51" y="-13"/>
      <point x="51" y="61" type="curve" smooth="yes"/>
      <point x="51" y="87"/>
      <point x="60" y="104"/>
      <point x="94" y="104" type="curve" smooth="yes"/>
      <point x="1066" y="104" type="line"/>
    </contour>
  </outline>
</glyph>
<glyph name="ii-tamil" format="2">
  <advance width="892"/>
  <unicode hex="0B88"/>
  <note>
uni0B88
</note>
  <anchor x="399" y="0" name="bottom"/>
  <anchor x="399" y="0" name="nukta"/>
  <anchor x="520" y="563" name="top"/>
  <anchor x="521" y="563" name="vedic"/>
  <outline>
    <contour>
      <point x="29" y="0" type="line"/>
      <point x="98" y="0" type="line"/>
      <point x="205" y="502" type="line"/>
      <point x="500" y="502" type="line"/>
      <point x="393" y="0" type="line"/>
      <point x="551" y="0" type="line"/>
      <point x="658" y="502" type="line"/>
      <point x="891" y="502" type="line"/>
      <point x="903" y="563" type="line"/>
      <point x="149" y="563" type="line"/>
    </contour>
    <contour>
      <point x="301" y="185" type="curve" smooth="yes"/>
      <point x="347" y="185"/>
      <point x="384" y="222"/>
      <point x="384" y="266" type="curve" smooth="yes"/>
      <point x="384" y="309"/>
      <point x="347" y="346"/>
      <point x="301" y="346" type="curve" smooth="yes"/>
      <point x="255" y="346"/>
      <point x="218" y="309"/>
      <point x="218" y="266" type="curve" smooth="yes"/>
      <point x="218" y="222"/>
      <point x="255" y="185"/>
    </contour>
    <contour>
      <point x="753" y="185" type="curve" smooth="yes"/>
      <point x="799" y="185"/>
      <point x="836" y="222"/>
      <point x="836" y="266" type="curve" smooth="yes"/>
      <point x="836" y="309"/>
      <point x="799" y="346"/>
      <point x="753" y="346" type="curve" smooth="yes"/>
      <point x="707" y="346"/>
      <point x="670" y="309"/>
      <point x="670" y="266" type="curve" smooth="yes"/>
      <point x="670" y="222"/>
      <point x="707" y="185"/>
    </contour>
  </outline>
</glyph>
<glyph name="u-tamil" format="2">
  <advance width="987"/>
  <unicode hex="0B89"/>
  <note>
uni0B89
</note>
  <anchor x="447" y="0" name="bottom"/>
  <anchor x="447" y="0" name="nukta"/>
  <anchor x="570" y="563" name="top"/>
  <anchor x="569" y="563" name="vedic"/>
  <outline>
    <contour>
      <point x="86" y="0" type="curve" smooth="yes"/>
      <point x="919" y="0" type="line"/>
      <point x="932" y="61" type="line"/>
      <point x="97" y="61" type="line" smooth="yes"/>
      <point x="80" y="61"/>
      <point x="62" y="71"/>
      <point x="62" y="92" type="curve" smooth="yes"/>
      <point x="62" y="113"/>
      <point x="79" y="129"/>
      <point x="104" y="129" type="curve" smooth="yes"/>
      <point x="376" y="129" type="line" smooth="yes"/>
      <point x="566" y="129"/>
      <point x="717" y="199"/>
      <point x="717" y="366" type="curve" smooth="yes"/>
      <point x="717" y="499"/>
      <point x="592" y="568"/>
      <point x="428" y="568" type="curve" smooth="yes"/>
      <point x="253" y="568"/>
      <point x="139" y="479"/>
      <point x="139" y="367" type="curve" smooth="yes"/>
      <point x="139" y="298"/>
      <point x="190" y="236"/>
      <point x="285" y="236" type="curve" smooth="yes"/>
      <point x="406" y="236"/>
      <point x="463" y="306"/>
      <point x="463" y="381" type="curve" smooth="yes"/>
      <point x="463" y="443"/>
      <point x="415" y="504"/>
      <point x="340" y="517" type="curve"/>
      <point x="289" y="512" type="line"/>
      <point x="331" y="489"/>
      <point x="359" y="450"/>
      <point x="359" y="402" type="curve" smooth="yes"/>
      <point x="359" y="346"/>
      <point x="323" y="312"/>
      <point x="276" y="312" type="curve" smooth="yes"/>
      <point x="238" y="312"/>
      <point x="214" y="345"/>
      <point x="214" y="381" type="curve" smooth="yes"/>
      <point x="214" y="432"/>
      <point x="256" y="506"/>
      <point x="410" y="506" type="curve" smooth="yes"/>
      <point x="499" y="506"/>
      <point x="561" y="462"/>
      <point x="561" y="374" type="curve" smooth="yes"/>
      <point x="561" y="259"/>
      <point x="484" y="188"/>
      <point x="361" y="188" type="curve" smooth="yes"/>
      <point x="118" y="188" type="line" smooth="yes"/>
      <point x="43" y="188"/>
      <point x="-3" y="148"/>
      <point x="-3" y="87" type="curve" smooth="yes"/>
      <point x="-3" y="38"/>
      <point x="30" y="0"/>
    </contour>
  </outline>
</glyph>
<glyph name="ka-tamil" format="2">
  <advance width="901"/>
  <unicode hex="0B95"/>
  <note>
uni0B95
</note>
  <anchor x="365" y="0" name="bottom"/>
  <anchor x="645" y="563" name="imatra"/>
  <anchor x="365" y="0" name="nukta"/>
  <anchor x="521" y="563" name="top"/>
  <anchor x="505" y="563" name="vedic"/>
  <outline>
    <contour>
      <point x="248" y="-4" type="curve" smooth="yes"/>
      <point x="422" y="-4"/>
      <point x="498" y="77"/>
      <point x="527" y="217" type="curve" smooth="yes"/>
      <point x="538" y="270" type="line"/>
      <point x="591" y="270" type="line" smooth="yes"/>
      <point x="649" y="270"/>
      <point x="678" y="234"/>
      <point x="678" y="183" type="curve" smooth="yes"/>
      <point x="678" y="108"/>
      <point x="639" y="57"/>
      <point x="568" y="57" type="curve" smooth="yes"/>
      <point x="539" y="57" type="line"/>
      <point x="526" y="-4" type="line"/>
      <point x="588" y="-4" type="line" smooth="yes"/>
      <point x="720" y="-4"/>
      <point x="830" y="56"/>
      <point x="830" y="185" type="curve" smooth="yes"/>
      <point x="830" y="282"/>
      <point x="750" y="331"/>
      <point x="605" y="331" type="curve" smooth="yes"/>
      <point x="551" y="331" type="line"/>
      <point x="587" y="502" type="line"/>
      <point x="741" y="502" type="line"/>
      <point x="754" y="563" type="line"/>
      <point x="233" y="563" type="line"/>
      <point x="177" y="299" type="line"/>
      <point x="243" y="299" type="line"/>
      <point x="286" y="502" type="line"/>
      <point x="428" y="502" type="line"/>
      <point x="391" y="331" type="line"/>
      <point x="253" y="331" type="line" smooth="yes"/>
      <point x="130" y="331"/>
      <point x="34" y="264"/>
      <point x="34" y="154" type="curve" smooth="yes"/>
      <point x="34" y="70"/>
      <point x="100" y="-4"/>
    </contour>
    <contour>
      <point x="217" y="61" type="curve" smooth="yes"/>
      <point x="142" y="61"/>
      <point x="106" y="101"/>
      <point x="106" y="163" type="curve" smooth="yes"/>
      <point x="106" y="231"/>
      <point x="151" y="270"/>
      <point x="252" y="270" type="curve" smooth="yes"/>
      <point x="378" y="270" type="line"/>
      <point x="367" y="217" type="line" smooth="yes"/>
      <point x="346" y="118"/>
      <point x="306" y="61"/>
    </contour>
  </outline>
</glyph>
<glyph name="tta-tamil" format="2">
  <advance width="937"/>
  <unicode hex="0B9F"/>
  <note>
uni0B9F
</note>
  <anchor x="410" y="0" name="bottom"/>
  <anchor x="410" y="0" name="nukta"/>
  <anchor x="567" y="563" name="top"/>
  <anchor x="569" y="563" name="vedic"/>
  <outline>
    <contour>
      <point x="29" y="0" type="line"/>
      <point x="868" y="0" type="line"/>
      <point x="881" y="61" type="line"/>
      <point x="204" y="61" type="line"/>
      <point x="311" y="563" type="line"/>
      <point x="149" y="563" type="line"/>
    </contour>
  </outline>
</glyph>
<glyph name="sha-tamil" format="2">
  <advance width="1192"/>
  <unicode hex="0BB6"/>
  <note>
uni0BB6
</note>
  <anchor x="545" y="0" name="bottom"/>
  <anchor x="993" y="563" name="imatra"/>
  <anchor x="545" y="0" name="nukta"/>
  <anchor x="664" y="563" name="top"/>
  <anchor x="668" y="563" name="vedic"/>
  <outline>
    <contour>
      <point x="271" y="-5" type="curve" smooth="yes"/>
      <point x="398" y="-5"/>
      <point x="485" y="51"/>
      <point x="516" y="197" type="curve" smooth="yes"/>
      <point x="580" y="502" type="line"/>
      <point x="722" y="502" type="line"/>
      <point x="655" y="191" type="line" smooth="yes"/>
      <point x="629" y="69"/>
      <point x="704" y="-5"/>
      <point x="822" y="-5" type="curve" smooth="yes"/>
      <point x="1028" y="-5"/>
      <point x="1152" y="212"/>
      <point x="1152" y="424" type="curve" smooth="yes"/>
      <point x="1152" y="514"/>
      <point x="1106" y="563"/>
      <point x="1015" y="563" type="curve" smooth="yes"/>
      <point x="528" y="563" type="line"/>
      <point x="453" y="207" type="line" smooth="yes"/>
      <point x="430" y="98"/>
      <point x="378" y="61"/>
      <point x="316" y="61" type="curve" smooth="yes"/>
      <point x="243" y="61"/>
      <point x="215" y="117"/>
      <point x="231" y="191" type="curve" smooth="yes"/>
      <point x="309" y="563" type="line"/>
      <point x="147" y="563" type="line"/>
      <point x="72" y="205" type="line" smooth="yes"/>
      <point x="45" y="78"/>
      <point x="138" y="-5"/>
    </contour>
    <contour>
      <point x="870" y="61" type="curve" smooth="yes"/>
      <point x="811" y="61"/>
      <point x="794" y="102"/>
      <point x="807" y="160" type="curve" smooth="yes"/>
      <point x="881" y="502" type="line"/>
      <point x="1004" y="502" type="line" smooth="yes"/>
      <point x="1062" y="502"/>
      <point x="1085" y="468"/>
      <point x="1085" y="408" type="curve" smooth="yes"/>
      <point x="1085" y="252"/>
      <point x="987" y="61"/>
    </contour>
  </outline>
</glyph>
<glyph name="aaMatra-tamil" format="2">
  <advance width="673"/>
  <unicode hex="0BBE"/>
  <note>
uni0BBE
</note>
  <anchor x="302" y="0" name="bottom"/>
  <anchor x="301" y="0" name="nukta"/>
  <anchor x="415" y="563" name="top"/>
  <anchor x="415" y="563" name="vedic"/>
  <outline>
    <contour>
      <point x="29" y="0" type="line"/>
      <point x="98" y="0" type="line"/>
      <point x="205" y="502" type="line"/>
      <point x="392" y="502" type="line"/>
      <point x="285" y="0" type="line"/>
      <point x="443" y="0" type="line"/>
      <point x="550" y="502" type="line"/>
      <point x="704" y="502" type="line"/>
      <point x="716" y="563" type="line"/>
      <point x="149" y="563" type="line"/>
    </contour>
  </outline>
</glyph>
<glyph name="zero-tamil" format="2">
  <advance width="654"/>
  <unicode hex="0BE6"/>
  <note>
uni0BE6
</note>
  <outline>
    <contour>
      <point x="282" y="-5" type="curve" smooth="yes"/>
      <point x="479" y="-5"/>
      <point x="606" y="137"/>
      <point x="606" y="326" type="curve" smooth="yes"/>
      <point x="606" y="482"/>
      <point x="499" y="568"/>
      <point x="353" y="568" type="curve" smooth="yes"/>
      <point x="180" y="568"/>
      <point x="50" y="429"/>
      <point x="50" y="234" type="curve" smooth="yes"/>
      <point x="50" y="104"/>
      <point x="128" y="-5"/>
    </contour>
    <contour>
      <point x="249" y="56" type="curve" smooth="yes"/>
      <point x="160" y="56"/>
      <point x="111" y="140"/>
      <point x="111" y="236" type="curve" smooth="yes"/>
      <point x="111" y="383"/>
      <point x="194" y="507"/>
      <point x="318" y="507" type="curve" smooth="yes"/>
      <point x="396" y="507"/>
      <point x="455" y="456"/>
      <point x="455" y="343" type="curve" smooth="yes"/>
      <point x="455" y="174"/>
      <point x="375" y="56"/>
    </contour>
  </outline>
</glyph>
<glyph name="three-tamil" format="2">
  <advance width="917"/>
  <unicode hex="0BE9"/>
  <note>
uni0BE9
</note>
  <outline>
    <contour>
      <point x="29" y="0" type="line"/>
      <point x="91" y="0" type="line"/>
      <point x="198" y="502" type="line"/>
      <point x="342" y="502" type="line"/>
      <point x="272" y="175" type="line"/>
      <point x="417" y="175" type="line"/>
      <point x="425" y="212" type="line" smooth="yes"/>
      <point x="434" y="255"/>
      <point x="459" y="281"/>
      <point x="496" y="281" type="curve" smooth="yes"/>
      <point x="529" y="281"/>
      <point x="554" y="260"/>
      <point x="554" y="219" type="curve" smooth="yes"/>
      <point x="554" y="127"/>
      <point x="482" y="61"/>
      <point x="383" y="61" type="curve" smooth="yes"/>
      <point x="248" y="61" type="line"/>
      <point x="235" y="0" type="line"/>
      <point x="838" y="0" type="line"/>
      <point x="851" y="61" type="line"/>
      <point x="545" y="61" type="line"/>
      <point x="635" y="86"/>
      <point x="709" y="152"/>
      <point x="709" y="253" type="curve" smooth="yes"/>
      <point x="709" y="337"/>
      <point x="653" y="383"/>
      <point x="576" y="383" type="curve" smooth="yes"/>
      <point x="519" y="383"/>
      <point x="477" y="352"/>
      <point x="454" y="324" type="curve"/>
      <point x="493" y="502" type="line"/>
      <point x="637" y="502" type="line"/>
      <point x="650" y="563" type="line"/>
      <point x="149" y="563" type="line"/>
    </contour>
  </outline>
</glyph>
<glyph name="onethousand-tamil" format="2">
  <advance width="1266"/>
  <unicode hex="0BF2"/>
  <note>
uni0BF2
</note>
  <outline>
    <contour>
      <point x="254" y="-4" type="curve" smooth="yes"/>
      <point x="428" y="-4"/>
      <point x="504" y="77"/>
      <point x="533" y="217" type="curve" smooth="yes"/>
      <point x="544" y="270" type="line"/>
      <point x="1100" y="270" type="line"/>
      <point x="1114" y="331" type="line"/>
      <point x="557" y="331" type="line"/>
      <point x="593" y="502" type="line"/>
      <point x="747" y="502" type="line"/>
      <point x="760" y="563" type="line"/>
      <point x="239" y="563" type="line"/>
      <point x="183" y="299" type="line"/>
      <point x="249" y="299" type="line"/>
      <point x="292" y="502" type="line"/>
      <point x="434" y="502" type="line"/>
      <point x="397" y="331" type="line"/>
      <point x="259" y="331" type="line" smooth="yes"/>
      <point x="136" y="331"/>
      <point x="40" y="264"/>
      <point x="40" y="154" type="curve" smooth="yes"/>
      <point x="40" y="70"/>
      <point x="106" y="-4"/>
    </contour>
    <contour>
      <point x="223" y="61" type="curve" smooth="yes"/>
      <point x="148" y="61"/>
      <point x="112" y="101"/>
      <point x="112" y="163" type="curve" smooth="yes"/>
      <point x="112" y="231"/>
      <point x="157" y="270"/>
      <point x="258" y="270" type="curve" smooth="yes"/>
      <point x="384" y="270" type="line"/>
      <point x="373" y="217" type="line" smooth="yes"/>
      <point x="352" y="118"/>
      <point x="312" y="61"/>
    </contour>
    <contour>
      <point x="481" y="-283" type="curve"/>
      <point x="499" y="-197"/>
      <point x="535" y="-145"/>
      <point x="648" y="-145" type="curve" smooth="yes"/>
      <point x="810" y="-145" type="line" smooth="yes"/>
      <point x="1003" y="-145"/>
      <point x="1146" y="-87"/>
      <point x="1146" y="63" type="curve" smooth="yes"/>
      <point x="1146" y="172"/>
      <point x="1053" y="206"/>
      <point x="932" y="206" type="curve" smooth="yes"/>
      <point x="748" y="206" type="line" smooth="yes"/>
      <point x="660" y="206"/>
      <point x="595" y="157"/>
      <point x="595" y="84" type="curve" smooth="yes"/>
      <point x="595" y="18"/>
      <point x="651" y="-23"/>
      <point x="738" y="-23" type="curve" smooth="yes"/>
      <point x="851" y="-23"/>
      <point x="911" y="24"/>
      <point x="934" y="132" type="curve" smooth="yes"/>
      <point x="969" y="297" type="line"/>
      <point x="840" y="297" type="line"/>
      <point x="804" y="125" type="line" smooth="yes"/>
      <point x="789" y="51"/>
      <point x="761" y="35"/>
      <point x="722" y="35" type="curve" smooth="yes"/>
      <point x="683" y="35"/>
      <point x="661" y="58"/>
      <point x="661" y="90" type="curve" smooth="yes"/>
      <point x="661" y="126"/>
      <point x="691" y="147"/>
      <point x="740" y="147" type="curve" smooth="yes"/>
      <point x="924" y="147" type="line" smooth="yes"/>
      <point x="977" y="147"/>
      <point x="1014" y="123"/>
      <point x="1014" y="59" type="curve" smooth="yes"/>
      <point x="1014" y="-42"/>
      <point x="932" y="-83"/>
      <point x="822" y="-83" type="curve" smooth="yes"/>
      <point x="601" y="-83" type="line" smooth="yes"/>
      <point x="472" y="-83"/>
      <point x="374" y="-118"/>
      <point x="374" y="-200" type="curve" smooth="yes"/>
      <point x="374" y="-256"/>
      <point x="419" y="-283"/>
    </contour>
  </outline>
</glyph>
<glyph name="debit-tamil" format="2">
  <advance width="1284"/>
  <unicode hex="0BF6"/>
  <note>
uni0BF6
</note>
  <outline>
    <contour>
      <point x="279" y="-380" type="curve" smooth="yes"/>
      <point x="550" y="-380"/>
      <point x="731" y="-245"/>
      <point x="778" y="-24" type="curve" smooth="yes"/>
      <point x="903" y="563" type="line"/>
      <point x="743" y="563" type="line"/>
      <point x="621" y="-11" type="line" smooth="yes"/>
      <point x="580" y="-205"/>
      <point x="447" y="-319"/>
      <point x="263" y="-319" type="curve" smooth="yes"/>
      <point x="104" y="-319"/>
      <point x="22" y="-235"/>
      <point x="22" y="-167" type="curve" smooth="yes"/>
      <point x="22" y="-140"/>
      <point x="39" y="-125"/>
      <point x="70" y="-125" type="curve" smooth="yes"/>
      <point x="1110" y="-125" type="line"/>
      <point x="1256" y="563" type="line"/>
      <point x="1095" y="563" type="line"/>
      <point x="961" y="-64" type="line"/>
      <point x="70" y="-64" type="line" smooth="yes"/>
      <point x="0" y="-64"/>
      <point x="-42" y="-104"/>
      <point x="-42" y="-170" type="curve" smooth="yes"/>
      <point x="-42" y="-271"/>
      <point x="71" y="-380"/>
    </contour>
    <contour>
      <point x="33" y="15" type="line"/>
      <point x="707" y="15" type="line"/>
      <point x="720" y="76" type="line"/>
      <point x="203" y="76" type="line"/>
      <point x="307" y="563" type="line"/>
      <point x="149" y="563" type="line"/>
    </contour>
  </outline>
</glyph>
<glyph name="rupee-tamil" format="2">
  <advance width="1146"/>
  <unicode hex="0BF9"/>
  <note>
uni0BF9
</note>
  <outline>
    <contour>
      <point x="487" y="-324" type="curve" smooth="yes"/>
      <point x="819" y="-324"/>
      <point x="1059" y="-109"/>
      <point x="1059" y="165" type="curve" smooth="yes"/>
      <point x="1059" y="276"/>
      <point x="995" y="341"/>
      <point x="892" y="341" type="curve" smooth="yes"/>
      <point x="792" y="341"/>
      <point x="726" y="266"/>
      <point x="708" y="187" type="curve" smooth="yes"/>
      <point x="700" y="152" type="line"/>
      <point x="729" y="152" type="line"/>
      <point x="736" y="186" type="line" smooth="yes"/>
      <point x="744" y="223"/>
      <point x="778" y="252"/>
      <point x="819" y="252" type="curve" smooth="yes"/>
      <point x="866" y="252"/>
      <point x="902" y="223"/>
      <point x="902" y="159" type="curve" smooth="yes"/>
      <point x="902" y="-38"/>
      <point x="751" y="-263"/>
      <point x="485" y="-263" type="curve" smooth="yes"/>
      <point x="226" y="-263"/>
      <point x="125" y="-61"/>
      <point x="125" y="190" type="curve" smooth="yes"/>
      <point x="125" y="443"/>
      <point x="312" y="820"/>
      <point x="553" y="820" type="curve" smooth="yes"/>
      <point x="614" y="820"/>
      <point x="641" y="789"/>
      <point x="641" y="747" type="curve" smooth="yes"/>
      <point x="641" y="712"/>
      <point x="621" y="679"/>
      <point x="580" y="679" type="curve" smooth="yes"/>
      <point x="545" y="679"/>
      <point x="529" y="710"/>
      <point x="529" y="749" type="curve" smooth="yes"/>
      <point x="529" y="831"/>
      <point x="612" y="897"/>
      <point x="705" y="897" type="curve" smooth="yes"/>
      <point x="780" y="897"/>
      <point x="830" y="862"/>
      <point x="830" y="795" type="curve" smooth="yes"/>
      <point x="830" y="747"/>
      <point x="810" y="708"/>
      <point x="769" y="666" type="curve"/>
      <point x="775" y="618" type="line"/>
      <point x="980" y="618" type="line"/>
      <point x="992" y="676" type="line"/>
      <point x="829" y="676" type="line"/>
      <point x="812" y="653" type="line"/>
      <point x="878" y="685"/>
      <point x="929" y="739"/>
      <point x="929" y="818" type="curve" smooth="yes"/>
      <point x="929" y="920"/>
      <point x="834" y="964"/>
      <point x="723" y="964" type="curve" smooth="yes"/>
      <point x="597" y="964"/>
      <point x="467" y="859"/>
      <point x="467" y="744" type="curve" smooth="yes"/>
      <point x="467" y="671"/>
      <point x="511" y="618"/>
      <point x="594" y="618" type="curve" smooth="yes"/>
      <point x="677" y="618"/>
      <point x="738" y="675"/>
      <point x="738" y="754" type="curve" smooth="yes"/>
      <point x="738" y="837"/>
      <point x="669" y="877"/>
      <point x="563" y="877" type="curve" smooth="yes"/>
      <point x="271" y="877"/>
      <point x="58" y="499"/>
      <point x="58" y="180" type="curve" smooth="yes"/>
      <point x="58" y="-104"/>
      <point x="187" y="-324"/>
    </contour>
    <contour>
      <point x="313" y="0" type="line"/>
      <point x="380" y="0" type="line"/>
      <point x="487" y="502" type="line"/>
      <point x="644" y="502" type="line"/>
      <point x="537" y="0" type="line"/>
      <point x="697" y="0" type="line"/>
      <point x="803" y="502" type="line"/>
      <point x="955" y="502" type="line"/>
      <point x="968" y="563" type="line"/>
      <point x="432" y="563" type="line"/>
    </contour>
  </outline>
</glyph>
<glyph name="endash" format="2">
  <advance width="500"/>
  <unicode hex="2013"/>
  <outline>
    <contour>
      <point x="-12" y="233" type="line"/>
      <point x="499" y="233" type="line"/>
      <point x="514" y="304" type="line"/>
      <point x="2" y="304" type="line"/>
    </contour>
  </outline>
</glyph>
<glyph name="foursuperior" format="2">
  <advance width="400"/>
  <unicode hex="2074"/>
  <outline>
    <contour>
      <point x="154" y="387" type="line"/>
      <point x="384" y="387" type="line"/>
      <point x="393" y="431" type="line"/>
      <point x="373" y="431" type="line" smooth="yes"/>
      <point x="354" y="431"/>
      <point x="338" y="434"/>
      <point x="338" y="456" type="curve" smooth="yes"/>
      <point x="338" y="460"/>
      <point x="339" y="472"/>
      <point x="342" y="486" type="curve" smooth="yes"/>
      <point x="346" y="504" type="line"/>
      <point x="424" y="504" type="line"/>
      <point x="436" y="557" type="line"/>
      <point x="358" y="557" type="line"/>
      <point x="413" y="819" type="line"/>
      <point x="324" y="819" type="line"/>
      <point x="66" y="544" type="line"/>
      <point x="58" y="504" type="line"/>
      <point x="247" y="504" type="line"/>
      <point x="240" y="469" type="line" smooth="yes"/>
      <point x="233" y="435"/>
      <point x="213" y="431"/>
      <point x="191" y="431" type="curve" smooth="yes"/>
      <point x="163" y="431" type="line"/>
    </contour>
    <contour>
      <point x="140" y="557" type="line"/>
      <point x="280" y="706" type="line" smooth="yes"/>
      <point x="284" y="711"/>
      <point x="294" y="723"/>
      <point x="301" y="734" type="curve"/>
      <point x="294" y="709"/>
      <point x="286" y="690"/>
      <point x="282" y="669" type="curve" smooth="yes"/>
      <point x="259" y="557" type="line"/>
    </contour>
  </outline>
</glyph>
<glyph name="iMatra-tamil.alt01" format="2">
  <advance width="242"/>
  <note>
uni0BBF
</note>
  <anchor x="-33" y="868" name="top"/>
  <outline>
    <contour>
      <point x="25" y="0" type="line"/>
      <point x="93" y="0" type="line"/>
      <point x="215" y="568" type="line" smooth="yes"/>
      <point x="250" y="732"/>
      <point x="154" y="868"/>
      <point x="-33" y="868" type="curve" smooth="yes"/>
      <point x="-193" y="868"/>
      <point x="-275" y="758"/>
      <point x="-275" y="653" type="curve" smooth="yes"/>
      <point x="-275" y="589"/>
      <point x="-247" y="546"/>
      <point x="-203" y="518" type="curve"/>
      <point x="-167" y="546" type="line"/>
      <point x="-189" y="564"/>
      <point x="-205" y="590"/>
      <point x="-205" y="619" type="curve" smooth="yes"/>
      <point x="-205" y="667"/>
      <point x="-167" y="741"/>
      <point x="-40" y="741" type="curve" smooth="yes"/>
      <point x="90" y="741"/>
      <point x="164" y="649"/>
      <point x="136" y="520" type="curve" smooth="yes"/>
    </contour>
  </outline>
</glyph>
<glyph name="lii-tamil" format="2">
  <advance width="1142"/>
  <note>
g135
</note>
  <anchor x="528" y="0" name="bottom"/>
  <anchor x="529" y="0" name="nukta"/>
  <anchor x="1088" y="892" name="top"/>
  <anchor x="741" y="563" name="vedic"/>
  <outline>
    <contour>
      <point x="272" y="-5" type="curve" smooth="yes"/>
      <point x="383" y="-5"/>
      <point x="478" y="60"/>
      <point x="478" y="182" type="curve" smooth="yes"/>
      <point x="478" y="271"/>
      <point x="411" y="323"/>
      <point x="327" y="323" type="curve" smooth="yes"/>
      <point x="223" y="323"/>
      <point x="147" y="253"/>
      <point x="104" y="106" type="curve"/>
      <point x="142" y="87" type="line"/>
      <point x="168" y="194"/>
      <point x="222" y="244"/>
      <point x="275" y="244" type="curve" smooth="yes"/>
      <point x="329" y="244"/>
      <point x="348" y="203"/>
      <point x="348" y="166" type="curve" smooth="yes"/>
      <point x="348" y="114"/>
      <point x="320" y="61"/>
      <point x="246" y="61" type="curve" smooth="yes"/>
      <point x="167" y="61"/>
      <point x="116" y="142"/>
      <point x="116" y="227" type="curve" smooth="yes"/>
      <point x="116" y="402"/>
      <point x="250" y="507"/>
      <point x="430" y="507" type="curve" smooth="yes"/>
      <point x="574" y="507"/>
      <point x="637" y="422"/>
      <point x="606" y="269" type="curve" smooth="yes"/>
      <point x="592" y="200" type="line" smooth="yes"/>
      <point x="567" y="77"/>
      <point x="637" y="-5"/>
      <point x="780" y="-5" type="curve" smooth="yes"/>
      <point x="949" y="-5"/>
      <point x="1076" y="120"/>
      <point x="1076" y="280" type="curve" smooth="yes"/>
      <point x="1076" y="457"/>
      <point x="896" y="534"/>
      <point x="896" y="677" type="curve" smooth="yes"/>
      <point x="896" y="776"/>
      <point x="976" y="831"/>
      <point x="1079" y="831" type="curve" smooth="yes"/>
      <point x="1137" y="831"/>
      <point x="1184" y="802"/>
      <point x="1184" y="744" type="curve" smooth="yes"/>
      <point x="1184" y="694"/>
      <point x="1154" y="662"/>
      <point x="1108" y="662" type="curve" smooth="yes"/>
      <point x="1022" y="662"/>
      <point x="1023" y="767"/>
      <point x="1082" y="855" type="curve"/>
      <point x="1029" y="860" type="line"/>
      <point x="935" y="743"/>
      <point x="971" y="587"/>
      <point x="1114" y="587" type="curve" smooth="yes"/>
      <point x="1206" y="587"/>
      <point x="1279" y="643"/>
      <point x="1279" y="741" type="curve" smooth="yes"/>
      <point x="1279" y="846"/>
      <point x="1185" y="892"/>
      <point x="1088" y="892" type="curve" smooth="yes"/>
      <point x="946" y="892"/>
      <point x="829" y="808"/>
      <point x="829" y="665" type="curve" smooth="yes"/>
      <point x="829" y="514"/>
      <point x="1010" y="428"/>
      <point x="1010" y="270" type="curve" smooth="yes"/>
      <point x="1010" y="152"/>
      <point x="918" y="56"/>
      <point x="809" y="56" type="curve" smooth="yes"/>
      <point x="738" y="56"/>
      <point x="730" y="115"/>
      <point x="746" y="185" type="curve" smooth="yes"/>
      <point x="767" y="279" type="line" smooth="yes"/>
      <point x="809" y="469"/>
      <point x="664" y="568"/>
      <point x="463" y="568" type="curve" smooth="yes"/>
      <point x="223" y="568"/>
      <point x="54" y="433"/>
      <point x="54" y="223" type="curve" smooth="yes"/>
      <point x="54" y="103"/>
      <point x="131" y="-5"/>
    </contour>
  </outline>
</glyph>
